<svg width="1920" height="1080" viewBox="0 0 1920 1080" fill="none" xmlns="http://www.w3.org/2000/svg">
<g clip-path="url(#clip0_13_85)">
<rect width="1920" height="1080" fill="#1B2224"/>
<g clip-path="url(#clip1_13_85)">
<path d="M97.4802 951.49C72.4626 913.891 27.3066 894.917 -16.9813 904.305C-61.611 913.781 -96.4761 952.458 -101.583 997.693C-106.65 1042.73 -82.8799 1087.55 -42.0287 1107.74C-1.2603 1127.88 48.0593 1119.98 81.1166 1089.08C118.813 1053.87 124.596 995.825 98.0771 952.486C97.8954 952.144 97.6962 951.812 97.4802 951.49ZM-82.5909 1013.5C-83.859 976.861 -61.6201 941.907 -27.4988 928.129C9.0529 913.354 50.2815 924.714 74.9651 954.298L30.241 983.18C18.0866 972.854 0.711005 970.363 -13.6408 979.631C-27.538 988.606 -33.2386 1006 -28.6897 1021.24L-73.1889 1049.97C-78.9136 1038.63 -82.1208 1026.19 -82.5909 1013.5ZM20.4604 1001.23C31.254 1020.01 3.95168 1038.07 -7.9761 1019.6C-19.9039 1001.13 7.8047 983.652 20.4604 1001.23ZM77.0562 1064.19C54.2654 1093.98 14.5824 1106.43 -21.1494 1095.01C-37.3962 1089.75 -51.7581 1079.86 -62.4797 1066.57L-18.0134 1037.85C-6.01397 1048.3 12.3134 1050.15 26.1356 1041.23C40.5109 1031.94 45.354 1015.08 40.9548 999.77L85.693 970.88C100.211 1000.82 97.7375 1037.17 77.0609 1064.19L77.0562 1064.19Z" fill="black" fill-opacity="0.15"/>
</g>
<g clip-path="url(#clip2_13_85)">
<path d="M396.098 951.49C371.08 913.891 325.924 894.917 281.636 904.305C237.007 913.781 202.142 952.458 197.035 997.693C191.967 1042.73 215.738 1087.55 256.589 1107.74C297.358 1127.88 346.677 1119.98 379.734 1089.08C417.431 1053.87 423.214 995.825 396.695 952.486C396.513 952.144 396.314 951.812 396.098 951.49ZM216.027 1013.5C214.759 976.861 236.998 941.907 271.119 928.129C307.671 913.354 348.899 924.714 373.583 954.298L328.859 983.18C316.704 972.854 299.329 970.363 284.977 979.631C271.08 988.606 265.379 1006 269.928 1021.24L225.429 1049.97C219.704 1038.63 216.497 1026.19 216.027 1013.5ZM319.078 1001.23C329.872 1020.01 302.57 1038.07 290.642 1019.6C278.714 1001.13 306.423 983.652 319.078 1001.23ZM375.674 1064.19C352.883 1093.98 313.2 1106.43 277.468 1095.01C261.222 1089.75 246.86 1079.86 236.138 1066.57L280.604 1037.85C292.604 1048.3 310.931 1050.15 324.753 1041.23C339.129 1031.94 343.972 1015.08 339.573 999.77L384.311 970.88C398.829 1000.82 396.355 1037.17 375.679 1064.19L375.674 1064.19Z" fill="black" fill-opacity="0.15"/>
</g>
<g clip-path="url(#clip3_13_85)">
<path d="M694.716 951.49C669.698 913.891 624.542 894.917 580.254 904.305C535.625 913.781 500.76 952.458 495.653 997.693C490.585 1042.73 514.356 1087.55 555.207 1107.74C595.975 1127.88 645.295 1119.98 678.352 1089.08C716.049 1053.87 721.832 995.825 695.313 952.486C695.131 952.144 694.932 951.812 694.716 951.49ZM514.645 1013.5C513.377 976.861 535.616 941.907 569.737 928.129C606.289 913.354 647.517 924.714 672.201 954.298L627.477 983.18C615.322 972.854 597.947 970.363 583.595 979.631C569.698 988.606 563.997 1006 568.546 1021.24L524.047 1049.97C518.322 1038.63 515.115 1026.19 514.645 1013.5ZM617.696 1001.23C628.49 1020.01 601.187 1038.07 589.26 1019.6C577.332 1001.13 605.04 983.652 617.696 1001.23ZM674.292 1064.19C651.501 1093.98 611.818 1106.43 576.086 1095.01C559.839 1089.75 545.478 1079.86 534.756 1066.57L579.222 1037.85C591.222 1048.3 609.549 1050.15 623.371 1041.23C637.747 1031.94 642.59 1015.08 638.19 999.77L682.929 970.88C697.446 1000.82 694.973 1037.17 674.297 1064.19L674.292 1064.19Z" fill="black" fill-opacity="0.15"/>
</g>
<g clip-path="url(#clip4_13_85)">
<path d="M993.334 951.49C968.316 913.891 923.16 894.917 878.872 904.305C834.243 913.781 799.377 952.458 794.271 997.693C789.203 1042.73 812.974 1087.55 853.825 1107.74C894.593 1127.88 943.913 1119.98 976.97 1089.08C1014.67 1053.87 1020.45 995.825 993.931 952.486C993.749 952.144 993.55 951.812 993.334 951.49ZM813.263 1013.5C811.995 976.861 834.233 941.907 868.355 928.129C904.906 913.354 946.135 924.714 970.819 954.298L926.095 983.18C913.94 972.854 896.565 970.363 882.213 979.631C868.315 988.606 862.615 1006 867.164 1021.24L822.665 1049.97C816.94 1038.63 813.733 1026.19 813.263 1013.5ZM916.314 1001.23C927.108 1020.01 899.805 1038.07 887.877 1019.6C875.95 1001.13 903.658 983.652 916.314 1001.23ZM972.91 1064.19C950.119 1093.98 910.436 1106.43 874.704 1095.01C858.457 1089.75 844.095 1079.86 833.374 1066.57L877.84 1037.85C889.84 1048.3 908.167 1050.15 921.989 1041.23C936.364 1031.94 941.208 1015.08 936.808 999.77L981.547 970.88C996.064 1000.82 993.591 1037.17 972.914 1064.19L972.91 1064.19Z" fill="black" fill-opacity="0.15"/>
</g>
<g clip-path="url(#clip5_13_85)">
<path d="M1291.95 951.49C1266.93 913.891 1221.78 894.917 1177.49 904.305C1132.86 913.781 1098 952.458 1092.89 997.693C1087.82 1042.73 1111.59 1087.55 1152.44 1107.74C1193.21 1127.88 1242.53 1119.98 1275.59 1089.08C1313.28 1053.87 1319.07 995.825 1292.55 952.486C1292.37 952.144 1292.17 951.812 1291.95 951.49ZM1111.88 1013.5C1110.61 976.861 1132.85 941.907 1166.97 928.129C1203.52 913.354 1244.75 924.714 1269.44 954.298L1224.71 983.18C1212.56 972.854 1195.18 970.363 1180.83 979.631C1166.93 988.606 1161.23 1006 1165.78 1021.24L1121.28 1049.97C1115.56 1038.63 1112.35 1026.19 1111.88 1013.5ZM1214.93 1001.23C1225.73 1020.01 1198.42 1038.07 1186.5 1019.6C1174.57 1001.13 1202.28 983.652 1214.93 1001.23ZM1271.53 1064.19C1248.74 1093.98 1209.05 1106.43 1173.32 1095.01C1157.08 1089.75 1142.71 1079.86 1131.99 1066.57L1176.46 1037.85C1188.46 1048.3 1206.78 1050.15 1220.61 1041.23C1234.98 1031.94 1239.83 1015.08 1235.43 999.77L1280.16 970.88C1294.68 1000.82 1292.21 1037.17 1271.53 1064.19L1271.53 1064.19Z" fill="black" fill-opacity="0.15"/>
</g>
<g clip-path="url(#clip6_13_85)">
<path d="M1590.57 951.49C1565.55 913.891 1520.4 894.917 1476.11 904.305C1431.48 913.781 1396.61 952.458 1391.51 997.693C1386.44 1042.73 1410.21 1087.55 1451.06 1107.74C1491.83 1127.88 1541.15 1119.98 1574.21 1089.08C1611.9 1053.87 1617.69 995.825 1591.17 952.486C1590.98 952.144 1590.79 951.812 1590.57 951.49ZM1410.5 1013.5C1409.23 976.861 1431.47 941.907 1465.59 928.129C1502.14 913.354 1543.37 924.714 1568.05 954.298L1523.33 983.18C1511.18 972.854 1493.8 970.363 1479.45 979.631C1465.55 988.606 1459.85 1006 1464.4 1021.24L1419.9 1049.97C1414.18 1038.63 1410.97 1026.19 1410.5 1013.5ZM1513.55 1001.23C1524.34 1020.01 1497.04 1038.07 1485.11 1019.6C1473.19 1001.13 1500.89 983.652 1513.55 1001.23ZM1570.15 1064.19C1547.35 1093.98 1507.67 1106.43 1471.94 1095.01C1455.69 1089.75 1441.33 1079.86 1430.61 1066.57L1475.08 1037.85C1487.08 1048.3 1505.4 1050.15 1519.22 1041.23C1533.6 1031.94 1538.44 1015.08 1534.04 999.77L1578.78 970.88C1593.3 1000.82 1590.83 1037.17 1570.15 1064.19L1570.15 1064.19Z" fill="black" fill-opacity="0.15"/>
</g>
<g clip-path="url(#clip7_13_85)">
<path d="M1889.19 951.49C1864.17 913.891 1819.01 894.917 1774.73 904.305C1730.1 913.781 1695.23 952.458 1690.12 997.693C1685.06 1042.73 1708.83 1087.55 1749.68 1107.74C1790.45 1127.88 1839.77 1119.98 1872.82 1089.08C1910.52 1053.87 1916.3 995.825 1889.78 952.486C1889.6 952.144 1889.4 951.812 1889.19 951.49ZM1709.12 1013.5C1707.85 976.861 1730.09 941.907 1764.21 928.129C1800.76 913.354 1841.99 924.714 1866.67 954.298L1821.95 983.18C1809.79 972.854 1792.42 970.363 1778.07 979.631C1764.17 988.606 1758.47 1006 1763.02 1021.24L1718.52 1049.97C1712.79 1038.63 1709.59 1026.19 1709.12 1013.5ZM1812.17 1001.23C1822.96 1020.01 1795.66 1038.07 1783.73 1019.6C1771.8 1001.13 1799.51 983.652 1812.17 1001.23ZM1868.76 1064.19C1845.97 1093.98 1806.29 1106.43 1770.56 1095.01C1754.31 1089.75 1739.95 1079.86 1729.23 1066.57L1773.69 1037.85C1785.69 1048.3 1804.02 1050.15 1817.84 1041.23C1832.22 1031.94 1837.06 1015.08 1832.66 999.77L1877.4 970.88C1891.92 1000.82 1889.44 1037.17 1868.77 1064.19L1868.76 1064.19Z" fill="black" fill-opacity="0.15"/>
</g>
<g clip-path="url(#clip8_13_85)">
<path d="M-50.5198 719.49C-75.5374 681.891 -120.693 662.917 -164.981 672.305C-209.611 681.781 -244.476 720.458 -249.583 765.693C-254.65 810.73 -230.88 855.551 -190.029 875.738C-149.26 895.878 -99.9407 887.977 -66.8834 857.084C-29.1868 821.866 -23.4037 763.825 -49.9229 720.486C-50.1046 720.144 -50.3038 719.812 -50.5198 719.49ZM-230.591 781.495C-231.859 744.861 -209.62 709.907 -175.499 696.129C-138.947 681.354 -97.7185 692.714 -73.0349 722.298L-117.759 751.18C-129.913 740.854 -147.289 738.363 -161.641 747.631C-175.538 756.606 -181.239 774.005 -176.69 789.235L-221.189 817.972C-226.914 806.632 -230.121 794.189 -230.591 781.495ZM-127.54 769.234C-116.746 788.005 -144.048 806.068 -155.976 787.597C-167.904 769.127 -140.195 751.652 -127.54 769.234ZM-70.9438 832.191C-93.7346 861.981 -133.418 874.428 -169.149 863.012C-185.396 857.746 -199.758 847.861 -210.48 834.565L-166.013 805.85C-154.014 816.297 -135.687 818.152 -121.864 809.226C-107.489 799.943 -102.646 783.078 -107.045 767.77L-62.307 738.88C-47.7892 768.818 -50.2625 805.171 -70.9391 832.188L-70.9438 832.191Z" fill="black" fill-opacity="0.15"/>
</g>
<g clip-path="url(#clip9_13_85)">
<path d="M248.098 719.49C223.08 681.891 177.924 662.917 133.636 672.305C89.0068 681.781 54.1417 720.458 49.0353 765.693C43.9673 810.73 67.7379 855.551 108.589 875.738C149.357 895.878 198.677 887.977 231.734 857.084C269.431 821.866 275.214 763.825 248.695 720.486C248.513 720.144 248.314 719.812 248.098 719.49ZM68.0269 781.495C66.7588 744.861 88.9977 709.907 123.119 696.129C159.671 681.354 200.899 692.714 225.583 722.298L180.859 751.18C168.704 740.854 151.329 738.363 136.977 747.631C123.08 756.606 117.379 774.005 121.928 789.235L77.4289 817.972C71.7042 806.632 68.497 794.189 68.0269 781.495ZM171.078 769.234C181.872 788.005 154.569 806.068 142.642 787.597C130.714 769.127 158.422 751.652 171.078 769.234ZM227.674 832.191C204.883 861.981 165.2 874.428 129.468 863.012C113.222 857.746 98.8597 847.861 88.1381 834.565L132.604 805.85C144.604 816.297 162.931 818.152 176.753 809.226C191.129 799.943 195.972 783.078 191.573 767.77L236.311 738.88C250.829 768.818 248.355 805.171 227.679 832.188L227.674 832.191Z" fill="black" fill-opacity="0.15"/>
</g>
<g clip-path="url(#clip10_13_85)">
<path d="M546.716 719.49C521.698 681.891 476.542 662.917 432.254 672.305C387.625 681.781 352.76 720.458 347.653 765.693C342.585 810.73 366.356 855.551 407.207 875.738C447.975 895.878 497.295 887.977 530.352 857.084C568.049 821.866 573.832 763.825 547.313 720.486C547.131 720.144 546.932 719.812 546.716 719.49ZM366.645 781.495C365.377 744.861 387.616 709.907 421.737 696.129C458.289 681.354 499.517 692.714 524.201 722.298L479.477 751.18C467.322 740.854 449.947 738.363 435.595 747.631C421.698 756.606 415.997 774.005 420.546 789.235L376.047 817.972C370.322 806.632 367.115 794.189 366.645 781.495ZM469.696 769.234C480.49 788.005 453.187 806.068 441.26 787.597C429.332 769.127 457.04 751.652 469.696 769.234ZM526.292 832.191C503.501 861.981 463.818 874.428 428.086 863.012C411.839 857.746 397.478 847.861 386.756 834.565L431.222 805.85C443.222 816.297 461.549 818.152 475.371 809.226C489.747 799.943 494.59 783.078 490.19 767.77L534.929 738.88C549.446 768.818 546.973 805.171 526.297 832.188L526.292 832.191Z" fill="black" fill-opacity="0.15"/>
</g>
<g clip-path="url(#clip11_13_85)">
<path d="M845.334 719.49C820.316 681.891 775.16 662.917 730.872 672.305C686.243 681.781 651.377 720.458 646.271 765.693C641.203 810.73 664.974 855.551 705.825 875.738C746.593 895.878 795.913 887.977 828.97 857.084C866.667 821.866 872.45 763.825 845.931 720.486C845.749 720.144 845.55 719.812 845.334 719.49ZM665.263 781.495C663.995 744.861 686.233 709.907 720.355 696.129C756.906 681.354 798.135 692.714 822.819 722.298L778.095 751.18C765.94 740.854 748.565 738.363 734.213 747.631C720.315 756.606 714.615 774.005 719.164 789.235L674.665 817.972C668.94 806.632 665.733 794.189 665.263 781.495ZM768.314 769.234C779.108 788.005 751.805 806.068 739.877 787.597C727.95 769.127 755.658 751.652 768.314 769.234ZM824.91 832.191C802.119 861.981 762.436 874.428 726.704 863.012C710.457 857.746 696.095 847.861 685.374 834.565L729.84 805.85C741.84 816.297 760.167 818.152 773.989 809.226C788.364 799.943 793.208 783.078 788.808 767.77L833.547 738.88C848.064 768.818 845.591 805.171 824.914 832.188L824.91 832.191Z" fill="black" fill-opacity="0.15"/>
</g>
<g clip-path="url(#clip12_13_85)">
<path d="M1143.95 719.49C1118.93 681.891 1073.78 662.917 1029.49 672.305C984.86 681.781 949.995 720.458 944.889 765.693C939.821 810.73 963.591 855.551 1004.44 875.738C1045.21 895.878 1094.53 887.977 1127.59 857.084C1165.28 821.866 1171.07 763.825 1144.55 720.486C1144.37 720.144 1144.17 719.812 1143.95 719.49ZM963.88 781.495C962.612 744.861 984.851 709.907 1018.97 696.129C1055.52 681.354 1096.75 692.714 1121.44 722.298L1076.71 751.18C1064.56 740.854 1047.18 738.363 1032.83 747.631C1018.93 756.606 1013.23 774.005 1017.78 789.235L973.282 817.972C967.558 806.632 964.351 794.189 963.88 781.495ZM1066.93 769.234C1077.73 788.005 1050.42 806.068 1038.5 787.597C1026.57 769.127 1054.28 751.652 1066.93 769.234ZM1123.53 832.191C1100.74 861.981 1061.05 874.428 1025.32 863.012C1009.08 857.746 994.713 847.861 983.992 834.565L1028.46 805.85C1040.46 816.297 1058.78 818.152 1072.61 809.226C1086.98 799.943 1091.83 783.078 1087.43 767.77L1132.16 738.88C1146.68 768.818 1144.21 805.171 1123.53 832.188L1123.53 832.191Z" fill="black" fill-opacity="0.15"/>
</g>
<g clip-path="url(#clip13_13_85)">
<path d="M1442.57 719.49C1417.55 681.891 1372.4 662.917 1328.11 672.305C1283.48 681.781 1248.61 720.458 1243.51 765.693C1238.44 810.73 1262.21 855.551 1303.06 875.738C1343.83 895.878 1393.15 887.977 1426.21 857.084C1463.9 821.866 1469.69 763.825 1443.17 720.486C1442.98 720.144 1442.79 719.812 1442.57 719.49ZM1262.5 781.495C1261.23 744.861 1283.47 709.907 1317.59 696.129C1354.14 681.354 1395.37 692.714 1420.05 722.298L1375.33 751.18C1363.18 740.854 1345.8 738.363 1331.45 747.631C1317.55 756.606 1311.85 774.005 1316.4 789.235L1271.9 817.972C1266.18 806.632 1262.97 794.189 1262.5 781.495ZM1365.55 769.234C1376.34 788.005 1349.04 806.068 1337.11 787.597C1325.19 769.127 1352.89 751.652 1365.55 769.234ZM1422.15 832.191C1399.35 861.981 1359.67 874.428 1323.94 863.012C1307.69 857.746 1293.33 847.861 1282.61 834.565L1327.08 805.85C1339.08 816.297 1357.4 818.152 1371.22 809.226C1385.6 799.943 1390.44 783.078 1386.04 767.77L1430.78 738.88C1445.3 768.818 1442.83 805.171 1422.15 832.188L1422.15 832.191Z" fill="black" fill-opacity="0.15"/>
</g>
<g clip-path="url(#clip14_13_85)">
<path d="M1741.19 719.49C1716.17 681.891 1671.01 662.917 1626.73 672.305C1582.1 681.781 1547.23 720.458 1542.12 765.693C1537.06 810.73 1560.83 855.551 1601.68 875.738C1642.45 895.878 1691.77 887.977 1724.82 857.084C1762.52 821.866 1768.3 763.825 1741.78 720.486C1741.6 720.144 1741.4 719.812 1741.19 719.49ZM1561.12 781.495C1559.85 744.861 1582.09 709.907 1616.21 696.129C1652.76 681.354 1693.99 692.714 1718.67 722.298L1673.95 751.18C1661.79 740.854 1644.42 738.363 1630.07 747.631C1616.17 756.606 1610.47 774.005 1615.02 789.235L1570.52 817.972C1564.79 806.632 1561.59 794.189 1561.12 781.495ZM1664.17 769.234C1674.96 788.005 1647.66 806.068 1635.73 787.597C1623.8 769.127 1651.51 751.652 1664.17 769.234ZM1720.76 832.191C1697.97 861.981 1658.29 874.428 1622.56 863.012C1606.31 857.746 1591.95 847.861 1581.23 834.565L1625.69 805.85C1637.69 816.297 1656.02 818.152 1669.84 809.226C1684.22 799.943 1689.06 783.078 1684.66 767.77L1729.4 738.88C1743.92 768.818 1741.44 805.171 1720.77 832.188L1720.76 832.191Z" fill="black" fill-opacity="0.15"/>
</g>
<g clip-path="url(#clip15_13_85)">
<path d="M2039.8 719.49C2014.79 681.891 1969.63 662.917 1925.34 672.305C1880.71 681.781 1845.85 720.458 1840.74 765.693C1835.67 810.73 1859.44 855.551 1900.3 875.738C1941.06 895.878 1990.38 887.977 2023.44 857.084C2061.14 821.866 2066.92 763.825 2040.4 720.486C2040.22 720.144 2040.02 719.812 2039.8 719.49ZM1859.73 781.495C1858.47 744.861 1880.7 709.907 1914.83 696.129C1951.38 681.354 1992.61 692.714 2017.29 722.298L1972.57 751.18C1960.41 740.854 1943.04 738.363 1928.68 747.631C1914.79 756.606 1909.09 774.005 1913.64 789.235L1869.14 817.972C1863.41 806.632 1860.2 794.189 1859.73 781.495ZM1962.79 769.234C1973.58 788.005 1946.28 806.068 1934.35 787.597C1922.42 769.127 1950.13 751.652 1962.79 769.234ZM2019.38 832.191C1996.59 861.981 1956.91 874.428 1921.18 863.012C1904.93 857.746 1890.57 847.861 1879.85 834.565L1924.31 805.85C1936.31 816.297 1954.64 818.152 1968.46 809.226C1982.84 799.943 1987.68 783.078 1983.28 767.77L2028.02 738.88C2042.54 768.818 2040.06 805.171 2019.39 832.188L2019.38 832.191Z" fill="black" fill-opacity="0.15"/>
</g>
<g clip-path="url(#clip16_13_85)">
<path d="M42.4802 487.49C17.4626 449.891 -27.6934 430.917 -71.9813 440.305C-116.611 449.781 -151.476 488.458 -156.583 533.693C-161.65 578.73 -137.88 623.551 -97.0287 643.738C-56.2603 663.878 -6.94072 655.977 26.1166 625.084C63.8132 589.866 69.5963 531.825 43.0771 488.486C42.8954 488.144 42.6962 487.812 42.4802 487.49ZM-137.591 549.495C-138.859 512.861 -116.62 477.907 -82.4988 464.129C-45.9471 449.354 -4.7185 460.714 19.9651 490.298L-24.759 519.18C-36.9134 508.854 -54.289 506.363 -68.6408 515.631C-82.538 524.606 -88.2386 542.005 -83.6897 557.235L-128.189 585.972C-133.914 574.632 -137.121 562.189 -137.591 549.495ZM-34.5396 537.234C-23.746 556.005 -51.0483 574.068 -62.9761 555.597C-74.9039 537.127 -47.1953 519.652 -34.5396 537.234ZM22.0562 600.191C-0.734588 629.981 -40.4176 642.428 -76.1494 631.012C-92.3962 625.746 -106.758 615.861 -117.48 602.565L-73.0134 573.85C-61.014 584.297 -42.6866 586.152 -28.8644 577.226C-14.4891 567.943 -9.64599 551.078 -14.0452 535.77L30.693 506.88C45.2108 536.818 42.7375 573.171 22.0609 600.188L22.0562 600.191Z" fill="black" fill-opacity="0.15"/>
</g>
<g clip-path="url(#clip17_13_85)">
<path d="M341.098 487.49C316.08 449.891 270.924 430.917 226.636 440.305C182.007 449.781 147.142 488.458 142.035 533.693C136.967 578.73 160.738 623.551 201.589 643.738C242.358 663.878 291.677 655.977 324.734 625.084C362.431 589.866 368.214 531.825 341.695 488.486C341.513 488.144 341.314 487.812 341.098 487.49ZM161.027 549.495C159.759 512.861 181.998 477.907 216.119 464.129C252.671 449.354 293.899 460.714 318.583 490.298L273.859 519.18C261.704 508.854 244.329 506.363 229.977 515.631C216.08 524.606 210.379 542.005 214.928 557.235L170.429 585.972C164.704 574.632 161.497 562.189 161.027 549.495ZM264.078 537.234C274.872 556.005 247.57 574.068 235.642 555.597C223.714 537.127 251.423 519.652 264.078 537.234ZM320.674 600.191C297.883 629.981 258.2 642.428 222.468 631.012C206.222 625.746 191.86 615.861 181.138 602.565L225.604 573.85C237.604 584.297 255.931 586.152 269.753 577.226C284.129 567.943 288.972 551.078 284.573 535.77L329.311 506.88C343.829 536.818 341.355 573.171 320.679 600.188L320.674 600.191Z" fill="black" fill-opacity="0.15"/>
</g>
<g clip-path="url(#clip18_13_85)">
<path d="M639.716 487.49C614.698 449.891 569.542 430.917 525.254 440.305C480.625 449.781 445.76 488.458 440.653 533.693C435.585 578.73 459.356 623.551 500.207 643.738C540.975 663.878 590.295 655.977 623.352 625.084C661.049 589.866 666.832 531.825 640.313 488.486C640.131 488.144 639.932 487.812 639.716 487.49ZM459.645 549.495C458.377 512.861 480.616 477.907 514.737 464.129C551.289 449.354 592.517 460.714 617.201 490.298L572.477 519.18C560.322 508.854 542.947 506.363 528.595 515.631C514.698 524.606 508.997 542.005 513.546 557.235L469.047 585.972C463.322 574.632 460.115 562.189 459.645 549.495ZM562.696 537.234C573.49 556.005 546.187 574.068 534.26 555.597C522.332 537.127 550.04 519.652 562.696 537.234ZM619.292 600.191C596.501 629.981 556.818 642.428 521.086 631.012C504.839 625.746 490.478 615.861 479.756 602.565L524.222 573.85C536.222 584.297 554.549 586.152 568.371 577.226C582.747 567.943 587.59 551.078 583.19 535.77L627.929 506.88C642.446 536.818 639.973 573.171 619.297 600.188L619.292 600.191Z" fill="black" fill-opacity="0.15"/>
</g>
<g clip-path="url(#clip19_13_85)">
<path d="M938.334 487.49C913.316 449.891 868.16 430.917 823.872 440.305C779.243 449.781 744.377 488.458 739.271 533.693C734.203 578.73 757.974 623.551 798.825 643.738C839.593 663.878 888.913 655.977 921.97 625.084C959.667 589.866 965.45 531.825 938.931 488.486C938.749 488.144 938.55 487.812 938.334 487.49ZM758.263 549.495C756.995 512.861 779.233 477.907 813.355 464.129C849.906 449.354 891.135 460.714 915.819 490.298L871.095 519.18C858.94 508.854 841.565 506.363 827.213 515.631C813.315 524.606 807.615 542.005 812.164 557.235L767.665 585.972C761.94 574.632 758.733 562.189 758.263 549.495ZM861.314 537.234C872.108 556.005 844.805 574.068 832.877 555.597C820.95 537.127 848.658 519.652 861.314 537.234ZM917.91 600.191C895.119 629.981 855.436 642.428 819.704 631.012C803.457 625.746 789.095 615.861 778.374 602.565L822.84 573.85C834.84 584.297 853.167 586.152 866.989 577.226C881.364 567.943 886.208 551.078 881.808 535.77L926.547 506.88C941.064 536.818 938.591 573.171 917.914 600.188L917.91 600.191Z" fill="black" fill-opacity="0.15"/>
</g>
<g clip-path="url(#clip20_13_85)">
<path d="M1236.95 487.49C1211.93 449.891 1166.78 430.917 1122.49 440.305C1077.86 449.781 1043 488.458 1037.89 533.693C1032.82 578.73 1056.59 623.551 1097.44 643.738C1138.21 663.878 1187.53 655.977 1220.59 625.084C1258.28 589.866 1264.07 531.825 1237.55 488.486C1237.37 488.144 1237.17 487.812 1236.95 487.49ZM1056.88 549.495C1055.61 512.861 1077.85 477.907 1111.97 464.129C1148.52 449.354 1189.75 460.714 1214.44 490.298L1169.71 519.18C1157.56 508.854 1140.18 506.363 1125.83 515.631C1111.93 524.606 1106.23 542.005 1110.78 557.235L1066.28 585.972C1060.56 574.632 1057.35 562.189 1056.88 549.495ZM1159.93 537.234C1170.73 556.005 1143.42 574.068 1131.5 555.597C1119.57 537.127 1147.28 519.652 1159.93 537.234ZM1216.53 600.191C1193.74 629.981 1154.05 642.428 1118.32 631.012C1102.08 625.746 1087.71 615.861 1076.99 602.565L1121.46 573.85C1133.46 584.297 1151.78 586.152 1165.61 577.226C1179.98 567.943 1184.83 551.078 1180.43 535.77L1225.16 506.88C1239.68 536.818 1237.21 573.171 1216.53 600.188L1216.53 600.191Z" fill="black" fill-opacity="0.15"/>
</g>
<g clip-path="url(#clip21_13_85)">
<path d="M1535.57 487.49C1510.55 449.891 1465.4 430.917 1421.11 440.305C1376.48 449.781 1341.61 488.458 1336.51 533.693C1331.44 578.73 1355.21 623.551 1396.06 643.738C1436.83 663.878 1486.15 655.977 1519.21 625.084C1556.9 589.866 1562.69 531.825 1536.17 488.486C1535.98 488.144 1535.79 487.812 1535.57 487.49ZM1355.5 549.495C1354.23 512.861 1376.47 477.907 1410.59 464.129C1447.14 449.354 1488.37 460.714 1513.05 490.298L1468.33 519.18C1456.18 508.854 1438.8 506.363 1424.45 515.631C1410.55 524.606 1404.85 542.005 1409.4 557.235L1364.9 585.972C1359.18 574.632 1355.97 562.189 1355.5 549.495ZM1458.55 537.234C1469.34 556.005 1442.04 574.068 1430.11 555.597C1418.19 537.127 1445.89 519.652 1458.55 537.234ZM1515.15 600.191C1492.35 629.981 1452.67 642.428 1416.94 631.012C1400.69 625.746 1386.33 615.861 1375.61 602.565L1420.08 573.85C1432.08 584.297 1450.4 586.152 1464.22 577.226C1478.6 567.943 1483.44 551.078 1479.04 535.77L1523.78 506.88C1538.3 536.818 1535.83 573.171 1515.15 600.188L1515.15 600.191Z" fill="black" fill-opacity="0.15"/>
</g>
<g clip-path="url(#clip22_13_85)">
<path d="M1834.19 487.49C1809.17 449.891 1764.01 430.917 1719.73 440.305C1675.1 449.781 1640.23 488.458 1635.12 533.693C1630.06 578.73 1653.83 623.551 1694.68 643.738C1735.45 663.878 1784.77 655.977 1817.82 625.084C1855.52 589.866 1861.3 531.825 1834.78 488.486C1834.6 488.144 1834.4 487.812 1834.19 487.49ZM1654.12 549.495C1652.85 512.861 1675.09 477.907 1709.21 464.129C1745.76 449.354 1786.99 460.714 1811.67 490.298L1766.95 519.18C1754.79 508.854 1737.42 506.363 1723.07 515.631C1709.17 524.606 1703.47 542.005 1708.02 557.235L1663.52 585.972C1657.79 574.632 1654.59 562.189 1654.12 549.495ZM1757.17 537.234C1767.96 556.005 1740.66 574.068 1728.73 555.597C1716.8 537.127 1744.51 519.652 1757.17 537.234ZM1813.76 600.191C1790.97 629.981 1751.29 642.428 1715.56 631.012C1699.31 625.746 1684.95 615.861 1674.23 602.565L1718.69 573.85C1730.69 584.297 1749.02 586.152 1762.84 577.226C1777.22 567.943 1782.06 551.078 1777.66 535.77L1822.4 506.88C1836.92 536.818 1834.44 573.171 1813.77 600.188L1813.76 600.191Z" fill="black" fill-opacity="0.15"/>
</g>
<g clip-path="url(#clip23_13_85)">
<path d="M2132.8 487.49C2107.79 449.891 2062.63 430.917 2018.34 440.305C1973.71 449.781 1938.85 488.458 1933.74 533.693C1928.67 578.73 1952.44 623.551 1993.3 643.738C2034.06 663.878 2083.38 655.977 2116.44 625.084C2154.14 589.866 2159.92 531.825 2133.4 488.486C2133.22 488.144 2133.02 487.812 2132.8 487.49ZM1952.73 549.495C1951.47 512.861 1973.7 477.907 2007.83 464.129C2044.38 449.354 2085.61 460.714 2110.29 490.298L2065.57 519.18C2053.41 508.854 2036.04 506.363 2021.68 515.631C2007.79 524.606 2002.09 542.005 2006.64 557.235L1962.14 585.972C1956.41 574.632 1953.2 562.189 1952.73 549.495ZM2055.79 537.234C2066.58 556.005 2039.28 574.068 2027.35 555.597C2015.42 537.127 2043.13 519.652 2055.79 537.234ZM2112.38 600.191C2089.59 629.981 2049.91 642.428 2014.18 631.012C1997.93 625.746 1983.57 615.861 1972.85 602.565L2017.31 573.85C2029.31 584.297 2047.64 586.152 2061.46 577.226C2075.84 567.943 2080.68 551.078 2076.28 535.77L2121.02 506.88C2135.54 536.818 2133.06 573.171 2112.39 600.188L2112.38 600.191Z" fill="black" fill-opacity="0.15"/>
</g>
<g clip-path="url(#clip24_13_85)">
<path d="M-50.5198 255.49C-75.5374 217.891 -120.693 198.917 -164.981 208.305C-209.611 217.781 -244.476 256.458 -249.583 301.693C-254.65 346.73 -230.88 391.551 -190.029 411.738C-149.26 431.878 -99.9407 423.977 -66.8834 393.084C-29.1868 357.866 -23.4037 299.825 -49.9229 256.486C-50.1046 256.144 -50.3038 255.812 -50.5198 255.49ZM-230.591 317.495C-231.859 280.861 -209.62 245.907 -175.499 232.129C-138.947 217.354 -97.7185 228.714 -73.0349 258.298L-117.759 287.18C-129.913 276.854 -147.289 274.363 -161.641 283.631C-175.538 292.606 -181.239 310.005 -176.69 325.235L-221.189 353.972C-226.914 342.632 -230.121 330.189 -230.591 317.495ZM-127.54 305.234C-116.746 324.005 -144.048 342.068 -155.976 323.597C-167.904 305.127 -140.195 287.652 -127.54 305.234ZM-70.9438 368.191C-93.7346 397.981 -133.418 410.428 -169.149 399.012C-185.396 393.746 -199.758 383.861 -210.48 370.565L-166.013 341.85C-154.014 352.297 -135.687 354.152 -121.864 345.226C-107.489 335.943 -102.646 319.078 -107.045 303.77L-62.307 274.88C-47.7892 304.818 -50.2625 341.171 -70.9391 368.188L-70.9438 368.191Z" fill="black" fill-opacity="0.15"/>
</g>
<g clip-path="url(#clip25_13_85)">
<path d="M248.098 255.49C223.08 217.891 177.924 198.917 133.636 208.305C89.0068 217.781 54.1417 256.458 49.0353 301.693C43.9673 346.73 67.7379 391.551 108.589 411.738C149.357 431.878 198.677 423.977 231.734 393.084C269.431 357.866 275.214 299.825 248.695 256.486C248.513 256.144 248.314 255.812 248.098 255.49ZM68.0269 317.495C66.7588 280.861 88.9977 245.907 123.119 232.129C159.671 217.354 200.899 228.714 225.583 258.298L180.859 287.18C168.704 276.854 151.329 274.363 136.977 283.631C123.08 292.606 117.379 310.005 121.928 325.235L77.4289 353.972C71.7042 342.632 68.497 330.189 68.0269 317.495ZM171.078 305.234C181.872 324.005 154.569 342.068 142.642 323.597C130.714 305.127 158.422 287.652 171.078 305.234ZM227.674 368.191C204.883 397.981 165.2 410.428 129.468 399.012C113.222 393.746 98.8597 383.861 88.1381 370.565L132.604 341.85C144.604 352.297 162.931 354.152 176.753 345.226C191.129 335.943 195.972 319.078 191.573 303.77L236.311 274.88C250.829 304.818 248.355 341.171 227.679 368.188L227.674 368.191Z" fill="black" fill-opacity="0.15"/>
</g>
<g clip-path="url(#clip26_13_85)">
<path d="M546.716 255.49C521.698 217.891 476.542 198.917 432.254 208.305C387.625 217.781 352.76 256.458 347.653 301.693C342.585 346.73 366.356 391.551 407.207 411.738C447.975 431.878 497.295 423.977 530.352 393.084C568.049 357.866 573.832 299.825 547.313 256.486C547.131 256.144 546.932 255.812 546.716 255.49ZM366.645 317.495C365.377 280.861 387.616 245.907 421.737 232.129C458.289 217.354 499.517 228.714 524.201 258.298L479.477 287.18C467.322 276.854 449.947 274.363 435.595 283.631C421.698 292.606 415.997 310.005 420.546 325.235L376.047 353.972C370.322 342.632 367.115 330.189 366.645 317.495ZM469.696 305.234C480.49 324.005 453.187 342.068 441.26 323.597C429.332 305.127 457.04 287.652 469.696 305.234ZM526.292 368.191C503.501 397.981 463.818 410.428 428.086 399.012C411.839 393.746 397.478 383.861 386.756 370.565L431.222 341.85C443.222 352.297 461.549 354.152 475.371 345.226C489.747 335.943 494.59 319.078 490.19 303.77L534.929 274.88C549.446 304.818 546.973 341.171 526.297 368.188L526.292 368.191Z" fill="black" fill-opacity="0.15"/>
</g>
<g clip-path="url(#clip27_13_85)">
<path d="M845.334 255.49C820.316 217.891 775.16 198.917 730.872 208.305C686.243 217.781 651.377 256.458 646.271 301.693C641.203 346.73 664.974 391.551 705.825 411.738C746.593 431.878 795.913 423.977 828.97 393.084C866.667 357.866 872.45 299.825 845.931 256.486C845.749 256.144 845.55 255.812 845.334 255.49ZM665.263 317.495C663.995 280.861 686.233 245.907 720.355 232.129C756.906 217.354 798.135 228.714 822.819 258.298L778.095 287.18C765.94 276.854 748.565 274.363 734.213 283.631C720.315 292.606 714.615 310.005 719.164 325.235L674.665 353.972C668.94 342.632 665.733 330.189 665.263 317.495ZM768.314 305.234C779.108 324.005 751.805 342.068 739.877 323.597C727.95 305.127 755.658 287.652 768.314 305.234ZM824.91 368.191C802.119 397.981 762.436 410.428 726.704 399.012C710.457 393.746 696.095 383.861 685.374 370.565L729.84 341.85C741.84 352.297 760.167 354.152 773.989 345.226C788.364 335.943 793.208 319.078 788.808 303.77L833.547 274.88C848.064 304.818 845.591 341.171 824.914 368.188L824.91 368.191Z" fill="black" fill-opacity="0.15"/>
</g>
<g clip-path="url(#clip28_13_85)">
<path d="M1143.95 255.49C1118.93 217.891 1073.78 198.917 1029.49 208.305C984.86 217.781 949.995 256.458 944.889 301.693C939.821 346.73 963.591 391.551 1004.44 411.738C1045.21 431.878 1094.53 423.977 1127.59 393.084C1165.28 357.866 1171.07 299.825 1144.55 256.486C1144.37 256.144 1144.17 255.812 1143.95 255.49ZM963.88 317.495C962.612 280.861 984.851 245.907 1018.97 232.129C1055.52 217.354 1096.75 228.714 1121.44 258.298L1076.71 287.18C1064.56 276.854 1047.18 274.363 1032.83 283.631C1018.93 292.606 1013.23 310.005 1017.78 325.235L973.282 353.972C967.558 342.632 964.351 330.189 963.88 317.495ZM1066.93 305.234C1077.73 324.005 1050.42 342.068 1038.5 323.597C1026.57 305.127 1054.28 287.652 1066.93 305.234ZM1123.53 368.191C1100.74 397.981 1061.05 410.428 1025.32 399.012C1009.08 393.746 994.713 383.861 983.992 370.565L1028.46 341.85C1040.46 352.297 1058.78 354.152 1072.61 345.226C1086.98 335.943 1091.83 319.078 1087.43 303.77L1132.16 274.88C1146.68 304.818 1144.21 341.171 1123.53 368.188L1123.53 368.191Z" fill="black" fill-opacity="0.15"/>
</g>
<g clip-path="url(#clip29_13_85)">
<path d="M1442.57 255.49C1417.55 217.891 1372.4 198.917 1328.11 208.305C1283.48 217.781 1248.61 256.458 1243.51 301.693C1238.44 346.73 1262.21 391.551 1303.06 411.738C1343.83 431.878 1393.15 423.977 1426.21 393.084C1463.9 357.866 1469.69 299.825 1443.17 256.486C1442.98 256.144 1442.79 255.812 1442.57 255.49ZM1262.5 317.495C1261.23 280.861 1283.47 245.907 1317.59 232.129C1354.14 217.354 1395.37 228.714 1420.05 258.298L1375.33 287.18C1363.18 276.854 1345.8 274.363 1331.45 283.631C1317.55 292.606 1311.85 310.005 1316.4 325.235L1271.9 353.972C1266.18 342.632 1262.97 330.189 1262.5 317.495ZM1365.55 305.234C1376.34 324.005 1349.04 342.068 1337.11 323.597C1325.19 305.127 1352.89 287.652 1365.55 305.234ZM1422.15 368.191C1399.35 397.981 1359.67 410.428 1323.94 399.012C1307.69 393.746 1293.33 383.861 1282.61 370.565L1327.08 341.85C1339.08 352.297 1357.4 354.152 1371.22 345.226C1385.6 335.943 1390.44 319.078 1386.04 303.77L1430.78 274.88C1445.3 304.818 1442.83 341.171 1422.15 368.188L1422.15 368.191Z" fill="black" fill-opacity="0.15"/>
</g>
<g clip-path="url(#clip30_13_85)">
<path d="M1741.19 255.49C1716.17 217.891 1671.01 198.917 1626.73 208.305C1582.1 217.781 1547.23 256.458 1542.12 301.693C1537.06 346.73 1560.83 391.551 1601.68 411.738C1642.45 431.878 1691.77 423.977 1724.82 393.084C1762.52 357.866 1768.3 299.825 1741.78 256.486C1741.6 256.144 1741.4 255.812 1741.19 255.49ZM1561.12 317.495C1559.85 280.861 1582.09 245.907 1616.21 232.129C1652.76 217.354 1693.99 228.714 1718.67 258.298L1673.95 287.18C1661.79 276.854 1644.42 274.363 1630.07 283.631C1616.17 292.606 1610.47 310.005 1615.02 325.235L1570.52 353.972C1564.79 342.632 1561.59 330.189 1561.12 317.495ZM1664.17 305.234C1674.96 324.005 1647.66 342.068 1635.73 323.597C1623.8 305.127 1651.51 287.652 1664.17 305.234ZM1720.76 368.191C1697.97 397.981 1658.29 410.428 1622.56 399.012C1606.31 393.746 1591.95 383.861 1581.23 370.565L1625.69 341.85C1637.69 352.297 1656.02 354.152 1669.84 345.226C1684.22 335.943 1689.06 319.078 1684.66 303.77L1729.4 274.88C1743.92 304.818 1741.44 341.171 1720.77 368.188L1720.76 368.191Z" fill="black" fill-opacity="0.15"/>
</g>
<g clip-path="url(#clip31_13_85)">
<path d="M2039.8 255.49C2014.79 217.891 1969.63 198.917 1925.34 208.305C1880.71 217.781 1845.85 256.458 1840.74 301.693C1835.67 346.73 1859.44 391.551 1900.3 411.738C1941.06 431.878 1990.38 423.977 2023.44 393.084C2061.14 357.866 2066.92 299.825 2040.4 256.486C2040.22 256.144 2040.02 255.812 2039.8 255.49ZM1859.73 317.495C1858.47 280.861 1880.7 245.907 1914.83 232.129C1951.38 217.354 1992.61 228.714 2017.29 258.298L1972.57 287.18C1960.41 276.854 1943.04 274.363 1928.68 283.631C1914.79 292.606 1909.09 310.005 1913.64 325.235L1869.14 353.972C1863.41 342.632 1860.2 330.189 1859.73 317.495ZM1962.79 305.234C1973.58 324.005 1946.28 342.068 1934.35 323.597C1922.42 305.127 1950.13 287.652 1962.79 305.234ZM2019.38 368.191C1996.59 397.981 1956.91 410.428 1921.18 399.012C1904.93 393.746 1890.57 383.861 1879.85 370.565L1924.31 341.85C1936.31 352.297 1954.64 354.152 1968.46 345.226C1982.84 335.943 1987.68 319.078 1983.28 303.77L2028.02 274.88C2042.54 304.818 2040.06 341.171 2019.39 368.188L2019.38 368.191Z" fill="black" fill-opacity="0.15"/>
</g>
<g clip-path="url(#clip32_13_85)">
<path d="M99.4802 23.4901C74.4626 -14.109 29.3066 -33.0834 -14.9813 -23.695C-59.611 -14.2187 -94.4761 24.4584 -99.5825 69.6929C-104.65 114.73 -80.8799 159.551 -40.0287 179.738C0.739697 199.878 50.0593 191.977 83.1166 161.084C120.813 125.866 126.596 67.8253 100.077 24.4864C99.8954 24.1443 99.6962 23.8117 99.4802 23.4901ZM-80.5909 85.4952C-81.859 48.8611 -59.6201 13.9067 -25.4988 0.129418C11.0529 -14.6461 52.2815 -3.28593 76.9651 26.2983L32.241 55.1798C20.0866 44.8536 2.71101 42.3632 -11.6408 51.6312C-25.538 60.6056 -31.2386 78.0046 -26.6897 93.2355L-71.1889 121.972C-76.9136 110.632 -80.1208 98.189 -80.5909 85.4952ZM22.4604 73.2339C33.254 92.0052 5.95168 110.068 -5.9761 91.5974C-17.9039 73.1268 9.8047 55.6519 22.4604 73.2339ZM79.0562 136.191C56.2654 165.981 16.5824 178.428 -19.1494 167.012C-35.3962 161.746 -49.7581 151.861 -60.4797 138.566L-16.0134 109.85C-4.01397 120.297 14.3134 122.153 28.1356 113.227C42.5109 103.943 47.354 87.0782 42.9548 71.7706L87.693 42.8799C102.211 72.8178 99.7375 109.171 79.0609 136.188L79.0562 136.191Z" fill="black" fill-opacity="0.15"/>
</g>
<g clip-path="url(#clip33_13_85)">
<path d="M398.098 23.4901C373.08 -14.109 327.924 -33.0834 283.636 -23.695C239.007 -14.2187 204.142 24.4584 199.035 69.6929C193.967 114.73 217.738 159.551 258.589 179.738C299.358 199.878 348.677 191.977 381.734 161.084C419.431 125.866 425.214 67.8253 398.695 24.4864C398.513 24.1443 398.314 23.8117 398.098 23.4901ZM218.027 85.4952C216.759 48.8611 238.998 13.9067 273.119 0.129418C309.671 -14.6461 350.899 -3.28593 375.583 26.2983L330.859 55.1798C318.704 44.8536 301.329 42.3632 286.977 51.6312C273.08 60.6056 267.379 78.0046 271.928 93.2355L227.429 121.972C221.704 110.632 218.497 98.189 218.027 85.4952ZM321.078 73.2339C331.872 92.0052 304.57 110.068 292.642 91.5974C280.714 73.1268 308.423 55.6519 321.078 73.2339ZM377.674 136.191C354.883 165.981 315.2 178.428 279.468 167.012C263.222 161.746 248.86 151.861 238.138 138.566L282.604 109.85C294.604 120.297 312.931 122.153 326.753 113.227C341.129 103.943 345.972 87.0782 341.573 71.7706L386.311 42.8799C400.829 72.8178 398.355 109.171 377.679 136.188L377.674 136.191Z" fill="black" fill-opacity="0.15"/>
</g>
<g clip-path="url(#clip34_13_85)">
<path d="M696.716 23.4901C671.698 -14.109 626.542 -33.0834 582.254 -23.695C537.625 -14.2187 502.76 24.4584 497.653 69.6929C492.585 114.73 516.356 159.551 557.207 179.738C597.975 199.878 647.295 191.977 680.352 161.084C718.049 125.866 723.832 67.8253 697.313 24.4864C697.131 24.1443 696.932 23.8117 696.716 23.4901ZM516.645 85.4952C515.377 48.8611 537.616 13.9067 571.737 0.129418C608.289 -14.6461 649.517 -3.28593 674.201 26.2983L629.477 55.1798C617.322 44.8536 599.947 42.3632 585.595 51.6312C571.698 60.6056 565.997 78.0046 570.546 93.2355L526.047 121.972C520.322 110.632 517.115 98.189 516.645 85.4952ZM619.696 73.2339C630.49 92.0052 603.187 110.068 591.26 91.5974C579.332 73.1268 607.04 55.6519 619.696 73.2339ZM676.292 136.191C653.501 165.981 613.818 178.428 578.086 167.012C561.839 161.746 547.478 151.861 536.756 138.566L581.222 109.85C593.222 120.297 611.549 122.153 625.371 113.227C639.747 103.943 644.59 87.0782 640.19 71.7706L684.929 42.8799C699.446 72.8178 696.973 109.171 676.297 136.188L676.292 136.191Z" fill="black" fill-opacity="0.15"/>
</g>
<g clip-path="url(#clip35_13_85)">
<path d="M995.334 23.4901C970.316 -14.109 925.16 -33.0834 880.872 -23.695C836.243 -14.2187 801.377 24.4584 796.271 69.6929C791.203 114.73 814.974 159.551 855.825 179.738C896.593 199.878 945.913 191.977 978.97 161.084C1016.67 125.866 1022.45 67.8253 995.931 24.4864C995.749 24.1443 995.55 23.8117 995.334 23.4901ZM815.263 85.4952C813.995 48.8611 836.233 13.9067 870.355 0.129418C906.906 -14.6461 948.135 -3.28593 972.819 26.2983L928.095 55.1798C915.94 44.8536 898.565 42.3632 884.213 51.6312C870.315 60.6056 864.615 78.0046 869.164 93.2355L824.665 121.972C818.94 110.632 815.733 98.189 815.263 85.4952ZM918.314 73.2339C929.108 92.0052 901.805 110.068 889.877 91.5974C877.95 73.1268 905.658 55.6519 918.314 73.2339ZM974.91 136.191C952.119 165.981 912.436 178.428 876.704 167.012C860.457 161.746 846.095 151.861 835.374 138.566L879.84 109.85C891.84 120.297 910.167 122.153 923.989 113.227C938.364 103.943 943.208 87.0782 938.808 71.7706L983.547 42.8799C998.064 72.8178 995.591 109.171 974.914 136.188L974.91 136.191Z" fill="black" fill-opacity="0.15"/>
</g>
<g clip-path="url(#clip36_13_85)">
<path d="M1293.95 23.4901C1268.93 -14.109 1223.78 -33.0834 1179.49 -23.695C1134.86 -14.2187 1100 24.4584 1094.89 69.6929C1089.82 114.73 1113.59 159.551 1154.44 179.738C1195.21 199.878 1244.53 191.977 1277.59 161.084C1315.28 125.866 1321.07 67.8253 1294.55 24.4864C1294.37 24.1443 1294.17 23.8117 1293.95 23.4901ZM1113.88 85.4952C1112.61 48.8611 1134.85 13.9067 1168.97 0.129418C1205.52 -14.6461 1246.75 -3.28593 1271.44 26.2983L1226.71 55.1798C1214.56 44.8536 1197.18 42.3632 1182.83 51.6312C1168.93 60.6056 1163.23 78.0046 1167.78 93.2355L1123.28 121.972C1117.56 110.632 1114.35 98.189 1113.88 85.4952ZM1216.93 73.2339C1227.73 92.0052 1200.42 110.068 1188.5 91.5974C1176.57 73.1268 1204.28 55.6519 1216.93 73.2339ZM1273.53 136.191C1250.74 165.981 1211.05 178.428 1175.32 167.012C1159.08 161.746 1144.71 151.861 1133.99 138.566L1178.46 109.85C1190.46 120.297 1208.78 122.153 1222.61 113.227C1236.98 103.943 1241.83 87.0782 1237.43 71.7706L1282.16 42.8799C1296.68 72.8178 1294.21 109.171 1273.53 136.188L1273.53 136.191Z" fill="black" fill-opacity="0.15"/>
</g>
<g clip-path="url(#clip37_13_85)">
<path d="M1592.57 23.4901C1567.55 -14.109 1522.4 -33.0834 1478.11 -23.695C1433.48 -14.2187 1398.61 24.4584 1393.51 69.6929C1388.44 114.73 1412.21 159.551 1453.06 179.738C1493.83 199.878 1543.15 191.977 1576.21 161.084C1613.9 125.866 1619.69 67.8253 1593.17 24.4864C1592.98 24.1443 1592.79 23.8117 1592.57 23.4901ZM1412.5 85.4952C1411.23 48.8611 1433.47 13.9067 1467.59 0.129418C1504.14 -14.6461 1545.37 -3.28593 1570.05 26.2983L1525.33 55.1798C1513.18 44.8536 1495.8 42.3632 1481.45 51.6312C1467.55 60.6056 1461.85 78.0046 1466.4 93.2355L1421.9 121.972C1416.18 110.632 1412.97 98.189 1412.5 85.4952ZM1515.55 73.2339C1526.34 92.0052 1499.04 110.068 1487.11 91.5974C1475.19 73.1268 1502.89 55.6519 1515.55 73.2339ZM1572.15 136.191C1549.35 165.981 1509.67 178.428 1473.94 167.012C1457.69 161.746 1443.33 151.861 1432.61 138.566L1477.08 109.85C1489.08 120.297 1507.4 122.153 1521.22 113.227C1535.6 103.943 1540.44 87.0782 1536.04 71.7706L1580.78 42.8799C1595.3 72.8178 1592.83 109.171 1572.15 136.188L1572.15 136.191Z" fill="black" fill-opacity="0.15"/>
</g>
<g clip-path="url(#clip38_13_85)">
<path d="M1891.19 23.4901C1866.17 -14.109 1821.01 -33.0834 1776.73 -23.695C1732.1 -14.2187 1697.23 24.4584 1692.12 69.6929C1687.06 114.73 1710.83 159.551 1751.68 179.738C1792.45 199.878 1841.77 191.977 1874.82 161.084C1912.52 125.866 1918.3 67.8253 1891.78 24.4864C1891.6 24.1443 1891.4 23.8117 1891.19 23.4901ZM1711.12 85.4952C1709.85 48.8611 1732.09 13.9067 1766.21 0.129418C1802.76 -14.6461 1843.99 -3.28593 1868.67 26.2983L1823.95 55.1798C1811.79 44.8536 1794.42 42.3632 1780.07 51.6312C1766.17 60.6056 1760.47 78.0046 1765.02 93.2355L1720.52 121.972C1714.79 110.632 1711.59 98.189 1711.12 85.4952ZM1814.17 73.2339C1824.96 92.0052 1797.66 110.068 1785.73 91.5974C1773.8 73.1268 1801.51 55.6519 1814.17 73.2339ZM1870.76 136.191C1847.97 165.981 1808.29 178.428 1772.56 167.012C1756.31 161.746 1741.95 151.861 1731.23 138.566L1775.69 109.85C1787.69 120.297 1806.02 122.153 1819.84 113.227C1834.22 103.943 1839.06 87.0782 1834.66 71.7706L1879.4 42.8799C1893.92 72.8178 1891.44 109.171 1870.77 136.188L1870.76 136.191Z" fill="black" fill-opacity="0.15"/>
</g>
</g>
<defs>
<clipPath id="clip0_13_85">
<rect width="1920" height="1080" fill="white"/>
</clipPath>
<clipPath id="clip1_13_85">
<rect width="297" height="297" fill="white" transform="translate(-199 966.119) rotate(-32.8532)"/>
</clipPath>
<clipPath id="clip2_13_85">
<rect width="297" height="297" fill="white" transform="translate(99.6178 966.119) rotate(-32.8532)"/>
</clipPath>
<clipPath id="clip3_13_85">
<rect width="297" height="297" fill="white" transform="translate(398.236 966.119) rotate(-32.8532)"/>
</clipPath>
<clipPath id="clip4_13_85">
<rect width="297" height="297" fill="white" transform="translate(696.854 966.119) rotate(-32.8532)"/>
</clipPath>
<clipPath id="clip5_13_85">
<rect width="297" height="297" fill="white" transform="translate(995.471 966.119) rotate(-32.8532)"/>
</clipPath>
<clipPath id="clip6_13_85">
<rect width="297" height="297" fill="white" transform="translate(1294.09 966.119) rotate(-32.8532)"/>
</clipPath>
<clipPath id="clip7_13_85">
<rect width="297" height="297" fill="white" transform="translate(1592.71 966.119) rotate(-32.8532)"/>
</clipPath>
<clipPath id="clip8_13_85">
<rect width="297" height="297" fill="white" transform="translate(-347 734.119) rotate(-32.8532)"/>
</clipPath>
<clipPath id="clip9_13_85">
<rect width="297" height="297" fill="white" transform="translate(-48.3822 734.119) rotate(-32.8532)"/>
</clipPath>
<clipPath id="clip10_13_85">
<rect width="297" height="297" fill="white" transform="translate(250.236 734.119) rotate(-32.8532)"/>
</clipPath>
<clipPath id="clip11_13_85">
<rect width="297" height="297" fill="white" transform="translate(548.854 734.119) rotate(-32.8532)"/>
</clipPath>
<clipPath id="clip12_13_85">
<rect width="297" height="297" fill="white" transform="translate(847.471 734.119) rotate(-32.8532)"/>
</clipPath>
<clipPath id="clip13_13_85">
<rect width="297" height="297" fill="white" transform="translate(1146.09 734.119) rotate(-32.8532)"/>
</clipPath>
<clipPath id="clip14_13_85">
<rect width="297" height="297" fill="white" transform="translate(1444.71 734.119) rotate(-32.8532)"/>
</clipPath>
<clipPath id="clip15_13_85">
<rect width="297" height="297" fill="white" transform="translate(1743.32 734.119) rotate(-32.8532)"/>
</clipPath>
<clipPath id="clip16_13_85">
<rect width="297" height="297" fill="white" transform="translate(-254 502.119) rotate(-32.8532)"/>
</clipPath>
<clipPath id="clip17_13_85">
<rect width="297" height="297" fill="white" transform="translate(44.6178 502.119) rotate(-32.8532)"/>
</clipPath>
<clipPath id="clip18_13_85">
<rect width="297" height="297" fill="white" transform="translate(343.236 502.119) rotate(-32.8532)"/>
</clipPath>
<clipPath id="clip19_13_85">
<rect width="297" height="297" fill="white" transform="translate(641.854 502.119) rotate(-32.8532)"/>
</clipPath>
<clipPath id="clip20_13_85">
<rect width="297" height="297" fill="white" transform="translate(940.471 502.119) rotate(-32.8532)"/>
</clipPath>
<clipPath id="clip21_13_85">
<rect width="297" height="297" fill="white" transform="translate(1239.09 502.119) rotate(-32.8532)"/>
</clipPath>
<clipPath id="clip22_13_85">
<rect width="297" height="297" fill="white" transform="translate(1537.71 502.119) rotate(-32.8532)"/>
</clipPath>
<clipPath id="clip23_13_85">
<rect width="297" height="297" fill="white" transform="translate(1836.32 502.119) rotate(-32.8532)"/>
</clipPath>
<clipPath id="clip24_13_85">
<rect width="297" height="297" fill="white" transform="translate(-347 270.119) rotate(-32.8532)"/>
</clipPath>
<clipPath id="clip25_13_85">
<rect width="297" height="297" fill="white" transform="translate(-48.3822 270.119) rotate(-32.8532)"/>
</clipPath>
<clipPath id="clip26_13_85">
<rect width="297" height="297" fill="white" transform="translate(250.236 270.119) rotate(-32.8532)"/>
</clipPath>
<clipPath id="clip27_13_85">
<rect width="297" height="297" fill="white" transform="translate(548.854 270.119) rotate(-32.8532)"/>
</clipPath>
<clipPath id="clip28_13_85">
<rect width="297" height="297" fill="white" transform="translate(847.471 270.119) rotate(-32.8532)"/>
</clipPath>
<clipPath id="clip29_13_85">
<rect width="297" height="297" fill="white" transform="translate(1146.09 270.119) rotate(-32.8532)"/>
</clipPath>
<clipPath id="clip30_13_85">
<rect width="297" height="297" fill="white" transform="translate(1444.71 270.119) rotate(-32.8532)"/>
</clipPath>
<clipPath id="clip31_13_85">
<rect width="297" height="297" fill="white" transform="translate(1743.32 270.119) rotate(-32.8532)"/>
</clipPath>
<clipPath id="clip32_13_85">
<rect width="297" height="297" fill="white" transform="translate(-197 38.119) rotate(-32.8532)"/>
</clipPath>
<clipPath id="clip33_13_85">
<rect width="297" height="297" fill="white" transform="translate(101.618 38.119) rotate(-32.8532)"/>
</clipPath>
<clipPath id="clip34_13_85">
<rect width="297" height="297" fill="white" transform="translate(400.236 38.119) rotate(-32.8532)"/>
</clipPath>
<clipPath id="clip35_13_85">
<rect width="297" height="297" fill="white" transform="translate(698.854 38.119) rotate(-32.8532)"/>
</clipPath>
<clipPath id="clip36_13_85">
<rect width="297" height="297" fill="white" transform="translate(997.471 38.119) rotate(-32.8532)"/>
</clipPath>
<clipPath id="clip37_13_85">
<rect width="297" height="297" fill="white" transform="translate(1296.09 38.119) rotate(-32.8532)"/>
</clipPath>
<clipPath id="clip38_13_85">
<rect width="297" height="297" fill="white" transform="translate(1594.71 38.119) rotate(-32.8532)"/>
</clipPath>
</defs>
</svg>
